<?xml version="1.0" standalone="no"?><!DOCTYPE svg PUBLIC "-//W3C//DTD SVG 1.1//EN" "http://www.w3.org/Graphics/SVG/1.1/DTD/svg11.dtd"><svg viewBox="0 0 1024 1024" version="1.1" xmlns="http://www.w3.org/2000/svg"><path d="M441.691429 308.114286c23.588571 0 42.605714-19.017143 42.605714-42.605715V144.274286l214.308571 145.554285-110.262857 81.005715c-19.017143 13.897143-23.04 40.594286-9.142857 59.611428 8.411429 11.337143 21.211429 17.371429 34.377143 17.371429 8.777143 0 17.554286-2.742857 25.234286-8.228572l158.72-116.662857c11.154286-8.228571 17.554286-21.211429 17.371428-35.108571-0.182857-13.897143-7.314286-26.697143-18.651428-34.377143l-330.788572-224.914286c-12.982857-8.96-29.988571-9.874286-43.885714-2.377143-13.897143 7.314286-22.674286 21.942857-22.674286 37.668572v201.691428c0 23.405714 19.2 42.605714 42.788572 42.605715zM934.125714 797.257143L141.805714 219.062857l-1.462857-1.097143c-5.302857-4.022857-11.337143-6.4-17.554286-7.497143-0.731429-0.182857-1.28-0.182857-2.011428-0.365714h-0.365714c-0.548571 0-1.097143-0.182857-1.645715-0.182857H112.731429c-0.548571 0-1.28 0-1.828572 0.182857h-0.182857c-4.754286 0.548571-9.325714 1.828571-13.714286 3.84h-0.182857c-0.548571 0.182857-1.097143 0.548571-1.645714 0.731429-0.182857 0-0.182857 0-0.365714 0.182857-0.365714 0.182857-0.914286 0.548571-1.28 0.731428-0.182857 0.182857-0.365714 0.182857-0.548572 0.365715-0.365714 0.182857-0.731429 0.365714-1.097143 0.731428-0.182857 0.182857-0.548571 0.365714-0.731428 0.365715-0.365714 0.182857-0.548571 0.365714-0.914286 0.548571-0.365714 0.182857-0.548571 0.365714-0.914286 0.548571-0.182857 0.182857-0.365714 0.365714-0.548571 0.365715-0.365714 0.365714-0.731429 0.548571-1.097143 0.914285-0.182857 0-0.182857 0.182857-0.365714 0.182858-0.365714 0.365714-0.914286 0.731429-1.28 1.097142-2.011429 1.828571-3.84 4.022857-5.668572 6.217143-4.022857 5.302857-6.4 11.337143-7.497143 17.554286v0.365714c-0.182857 0.548571-0.182857 1.097143-0.182857 1.645715v0.548571c0 0.548571-0.182857 0.914286-0.182857 1.462857V254.537143c0 0.548571 0 1.28 0.182857 1.828571v0.182857c0.731429 7.314286 3.474286 14.628571 8.045715 20.662858 0 0 0 0.182857 0.182857 0.182857 0.365714 0.365714 0.731429 0.914286 1.097143 1.28l0.365714 0.365714c0.365714 0.365714 0.548571 0.731429 0.914286 1.097143l0.548571 0.548571 0.731429 0.731429c0.182857 0.365714 0.548571 0.548571 0.731428 0.914286l0.365714 0.365714 1.097143 1.097143s0.182857 0 0.182857 0.182857c0.914286 0.914286 2.011429 1.828571 3.108572 2.56L396.342857 512 89.874286 737.28c-19.017143 13.897143-23.04 40.594286-9.142857 59.611429 8.411429 11.337143 21.211429 17.371429 34.377142 17.371428 8.777143 0 17.554286-2.742857 25.234286-8.228571l258.56-190.171429v344.32c0 15.725714 8.777143 30.354286 22.674286 37.668572 6.217143 3.291429 13.165714 4.937143 19.931428 4.937142 8.411429 0 16.822857-2.56 23.954286-7.314285l308.48-209.554286 109.714286 80.091429c7.68 5.485714 16.457143 8.228571 25.051428 8.228571 13.165714 0 26.148571-6.034286 34.377143-17.554286 14.262857-19.017143 10.057143-45.714286-8.96-59.428571z m-449.828571 82.468571V576.548571l214.308571 157.622858L484.297143 879.725714z" fill="black" /></svg>