<svg height="682pt" viewBox="-21 -130 682.66669 682" width="682pt" xmlns="http://www.w3.org/2000/svg" fill="white"><path d="m199.710938 261.257812h-51.664063l-48.179687 50.835938v65.382812h-31.25v37.5h99.996093v-37.5h-31.246093v-50.4375zm0 0"/><path d="m231.683594 279.566406c0 50.3125 40.933594 91.246094 91.246094 91.246094s91.246093-40.933594 91.246093-91.246094v-18.308594h-182.492187zm0 0"/><path d="m640 63.765625v-37.5h-85.308594v-33.183594h-37.5v33.183594h-85.308594v37.5h85.308594v61.246094h-394.382812v-61.246094h85.308594v-37.5h-85.308594v-33.183594h-37.5v33.183594h-85.308594v37.5h85.308594v61.246094h-50.285156v37.5h133.171874l16.394532 60.1875h270.84375l16.398437-60.1875h133.167969v-37.5h-50.308594v-61.246094zm0 0"/><path d="m540.15625 312.09375-48.179688-50.835938h-51.664062l62.34375 65.78125v50.4375h-31.246094v37.5h99.996094v-37.5h-31.25zm0 0"/></svg>