<?xml version="1.0" encoding="iso-8859-1"?>
<!-- Generator: Adobe Illustrator 16.0.0, SVG Export Plug-In . SVG Version: 6.00 Build 0)  -->
<!DOCTYPE svg PUBLIC "-//W3C//DTD SVG 1.1//EN" "http://www.w3.org/Graphics/SVG/1.1/DTD/svg11.dtd">
<svg version="1.1" id="Capa_1" xmlns="http://www.w3.org/2000/svg" xmlns:xlink="http://www.w3.org/1999/xlink" x="0px" y="0px"
	 width="95.167px" height="95.167px" viewBox="0 0 95.167 95.167" style="enable-background:new 0 0 95.167 95.167;"
	 xml:space="preserve">
<g>
	<g id="Battery_High">
		<g>
			<path d="M87.639,32.94h-6.951v-3.661c0-4.032-3.375-7.321-7.527-7.321H7.529C3.375,21.959,0,25.249,0,29.279v36.609
				c0,4.039,3.375,7.32,7.529,7.32H73.16c4.154,0,7.527-3.281,7.527-7.32v-3.66h6.951c4.149,0,7.528-3.283,7.528-7.322V40.264
				C95.167,36.23,91.789,32.94,87.639,32.94z M73.16,65.89H7.336l0.193-36.61h65.827l0.02,36.536
				C73.373,65.816,73.316,65.89,73.16,65.89z M87.639,54.906h-6.951V40.264h7.145L87.639,54.906z M14.672,58.646h7.336V36.682
				h-7.336V58.646z M29.344,58.646h7.332V36.682h-7.332V58.646z M44.012,58.646h7.335V36.682h-7.335V58.646z M58.684,58.646h7.336
				V36.682h-7.336V58.646z"/>
		</g>
	</g>
</g>
<g>
</g>
<g>
</g>
<g>
</g>
<g>
</g>
<g>
</g>
<g>
</g>
<g>
</g>
<g>
</g>
<g>
</g>
<g>
</g>
<g>
</g>
<g>
</g>
<g>
</g>
<g>
</g>
<g>
</g>
</svg>
