<?xml version="1.0" encoding="iso-8859-1"?>
<!-- Generator: Adobe Illustrator 16.0.0, SVG Export Plug-In . SVG Version: 6.00 Build 0)  -->
<!DOCTYPE svg PUBLIC "-//W3C//DTD SVG 1.1//EN" "http://www.w3.org/Graphics/SVG/1.1/DTD/svg11.dtd">
<svg version="1.1" id="Capa_1" xmlns="http://www.w3.org/2000/svg" xmlns:xlink="http://www.w3.org/1999/xlink" x="0px" y="0px"
	 width="95.165px" height="95.165px" viewBox="0 0 95.165 95.165" style="enable-background:new 0 0 95.165 95.165;"
	 xml:space="preserve">
<g>
	<g id="Battery_Medium">
		<g>
			<path d="M87.639,32.939h-6.949v-3.661c-0.002-4.032-3.377-7.321-7.529-7.321H7.529C3.379,21.958,0,25.248,0,29.278v36.609
				c0,4.039,3.379,7.32,7.529,7.32H73.16c4.152,0,7.527-3.281,7.527-7.32v-3.66h6.949c4.149,0,7.528-3.283,7.528-7.322V40.263
				C95.167,36.229,91.789,32.939,87.639,32.939z M73.16,65.889H7.336l0.193-36.61h65.823l0.021,36.536
				C73.375,65.815,73.312,65.889,73.16,65.889z M87.639,54.905h-6.949V40.263h7.143L87.639,54.905z M14.672,58.645h7.333V36.681
				h-7.333V58.645z M29.341,58.645h7.336V36.681h-7.336V58.645z"/>
		</g>
	</g>
</g>
<g>
</g>
<g>
</g>
<g>
</g>
<g>
</g>
<g>
</g>
<g>
</g>
<g>
</g>
<g>
</g>
<g>
</g>
<g>
</g>
<g>
</g>
<g>
</g>
<g>
</g>
<g>
</g>
<g>
</g>
</svg>
