<?xml version="1.0" encoding="iso-8859-1"?>
<!-- Generator: Adobe Illustrator 16.0.0, SVG Export Plug-In . SVG Version: 6.00 Build 0)  -->
<!DOCTYPE svg PUBLIC "-//W3C//DTD SVG 1.1//EN" "http://www.w3.org/Graphics/SVG/1.1/DTD/svg11.dtd">
<svg version="1.1" id="Capa_1" xmlns="http://www.w3.org/2000/svg" xmlns:xlink="http://www.w3.org/1999/xlink" x="0px" y="0px"
	 width="25.99px" height="25.99px" viewBox="0 0 25.99 25.99" style="enable-background:new 0 0 25.99 25.99;" xml:space="preserve"
	fill="white">
<g>
	<g>
		<path d="M18.82,18.488h-2.359c-0.229,0.373-0.451,0.73-0.666,1.072h2.512l4.291,5.357H3.392l4.292-5.357h2.511
			c-0.214-0.342-0.437-0.699-0.666-1.072H7.17L1.162,25.99h23.666L18.82,18.488z"/>
		<path d="M20.409,7.413C20.409,3.319,17.088,0,12.995,0S5.581,3.319,5.581,7.413c0,4.094,7.414,14.827,7.414,14.827
			S20.409,11.507,20.409,7.413z M9.288,7.413c0-2.049,1.661-3.707,3.707-3.707s3.707,1.658,3.707,3.707s-1.661,3.707-3.707,3.707
			S9.288,9.462,9.288,7.413z"/>
	</g>
</g>
<g>
</g>
<g>
</g>
<g>
</g>
<g>
</g>
<g>
</g>
<g>
</g>
<g>
</g>
<g>
</g>
<g>
</g>
<g>
</g>
<g>
</g>
<g>
</g>
<g>
</g>
<g>
</g>
<g>
</g>
</svg>
